<?xml version="1.0" encoding="utf-8"?>
<svg viewBox="237.598 -1.308 283.437 279.714" xmlns="http://www.w3.org/2000/svg">
  <g fill="none" fill-rule="evenodd" transform="matrix(0.995552, 0, 0, 1, 238.737152, -0.26403)">
    <path d="m281.514 138.811c0 38.259-13.73 70.914-41.188 97.967-27.459 27.053-60.604 40.58-99.437 40.58-38.832 0-71.978-13.527-99.437-40.58-27.458-27.053-41.188-59.708-41.188-97.967s13.73-70.914 41.188-97.967c27.46-27.054 60.605-40.58 99.438-40.58s71.978 13.527 99.437 40.58 41.188 59.708 41.188 97.967z" fill="#f00"/>
    <path d="m225.264 138.811c0 22.955-8.238 42.549-24.713 58.78-16.475 16.232-36.362 24.348-59.662 24.348s-43.187-8.116-59.662-24.348c-16.475-16.231-24.713-35.825-24.713-58.78s8.238-42.549 24.713-58.78c16.475-16.232 36.363-24.348 59.662-24.348 23.3 0 43.187 8.116 59.662 24.348 16.475 16.231 24.713 35.825 24.713 58.78z" fill="#f00"/>
    <path d="m225.264 138.811c0 22.955-8.238 42.549-24.713 58.78-16.475 16.232-36.362 24.348-59.662 24.348s-43.187-8.116-59.662-24.348c-16.475-16.231-24.713-35.825-24.713-58.78s8.238-42.549 24.713-58.78c16.475-16.232 36.363-24.348 59.662-24.348 23.3 0 43.187 8.116 59.662 24.348 16.475 16.231 24.713 35.825 24.713 58.78z" stroke="#fff" stroke-width="18.42"/>
    <path d="m112.764 179.74 73.049-40.917-73.049-40" fill="#fff"/>
  </g>
</svg>