<svg version="1.1" xmlns="http://www.w3.org/2000/svg" width="20" height="20" viewBox="0 0 20 20">
<title>shuffle</title>
<path d="M6.59 12.83l-2.19 2.17c-0.58 0.58-1.59 1-2.4 1h-2v-2h2c0.29 0 0.8-0.2 1-0.41l2.17-2.18 1.42 1.42zM16 4v-3l4 4-4 4v-3h-2c-0.29 0-0.8 0.2-1 0.41l-2.17 2.18-1.43-1.42 2.2-2.17c0.58-0.58 1.59-1 2.41-1h2zM16 14v-3l4 4-4 4v-3h-2c-0.82 0-1.83-0.42-2.41-1l-8.6-8.59c-0.19-0.2-0.69-0.41-0.99-0.41h-2v-2h2c0.82 0 1.83 0.42 2.41 1l8.6 8.59c0.2 0.2 0.7 0.41 0.99 0.41h2z"></path>
</svg>
